<svg height="512pt" viewBox="0 0 512 512.001" width="512pt" xmlns="http://www.w3.org/2000/svg"><path d="m511.996094 255.996094c0 68.382812-26.621094 132.671875-74.949219 181.019531-48.339844 48.351563-112.597656 74.980469-180.957031 74.980469-40.730469 0-81.269532-9.808594-117.21875-28.378906l-110.320313-110.351563c-18.558593-35.96875-28.371093-76.519531-28.371093-117.269531 0-68.367188 26.621093-132.65625 74.949218-181.007813 48.339844-48.359375 112.601563-74.988281 180.960938-74.988281s132.617187 26.628906 180.957031 74.988281c48.328125 48.351563 74.949219 112.640625 74.949219 181.007813zm0 0" fill="#a7eaf9"/><path d="m511.996094 255.996094c0 68.382812-26.621094 132.671875-74.949219 181.019531-48.339844 48.351563-112.597656 74.980469-180.957031 74.980469v-511.996094c68.359375 0 132.617187 26.628906 180.957031 74.988281 48.328125 48.351563 74.949219 112.640625 74.949219 181.007813zm0 0" fill="#76e1f7"/><path d="m88.765625 334.414062c-48.945313 0-88.765625 39.832032-88.765625 88.792969 0 48.960938 39.820312 88.792969 88.765625 88.792969 48.949219 0 88.765625-39.832031 88.765625-88.792969 0-48.960937-39.816406-88.792969-88.765625-88.792969zm0 0" fill="#ff771a"/><path d="m115.832031 410.207031h-54.128906c-8.28125 0-15 6.714844-15 15 0 8.285157 6.71875 15 15 15h54.128906c8.28125 0 15-6.714843 15-15 0-8.285156-6.714843-15-15-15zm0 0" fill="#fff"/><path d="m316.476562 214.71875c0 33.308594-27.089843 60.410156-60.386718 60.410156-33.300782 0-60.390625-27.101562-60.390625-60.410156s27.089843-60.398438 60.390625-60.398438c33.296875 0 60.386718 27.089844 60.386718 60.398438zm0 0" fill="#fed317"/><path d="m316.476562 214.71875c0 33.308594-27.089843 60.410156-60.386718 60.410156v-120.808594c33.296875 0 60.386718 27.089844 60.386718 60.398438zm0 0" fill="#fe9e0f"/><path d="m345.578125 334.6875c0 8.289062-6.71875 15-15 15h-148.980469c-8.277344 0-15-6.710938-15-15 0-49.359375 40.152344-89.507812 89.492188-89.507812s89.488281 40.148437 89.488281 89.507812zm0 0" fill="#3caafd"/><path d="m345.578125 334.6875c0 8.289062-6.71875 15-15 15h-74.488281v-104.507812c49.339844 0 89.488281 40.148437 89.488281 89.507812zm0 0" fill="#0083db"/></svg>