<?xml version="1.0" encoding="iso-8859-1"?>
<!-- Generator: Adobe Illustrator 19.0.0, SVG Export Plug-In . SVG Version: 6.00 Build 0)  -->
<svg version="1.1" id="Capa_1" xmlns="http://www.w3.org/2000/svg" xmlns:xlink="http://www.w3.org/1999/xlink" x="0px" y="0px"
	 viewBox="0 0 512.086 512.086" style="enable-background:new 0 0 512.086 512.086;" xml:space="preserve">
<path style="fill:#1565C0;" d="M490.411,181.54L287.744,31.802c-18.796-14.176-44.713-14.176-63.509,0L21.568,181.519
	C7.973,191.505-0.04,207.381,0,224.25c0.002,3.844,2.072,7.389,5.419,9.28l242.965,137.344l2.411,3.861
	c3.074,4.951,9.552,6.518,14.549,3.52l241.493-144.853c3.208-1.933,5.168-5.407,5.163-9.152
	C512.035,207.383,504.014,191.513,490.411,181.54z"/>
<path style="fill:#CFD8DC;" d="M444.885,67.3l-21.333-21.333c-4.165-4.164-10.917-4.164-15.083,0L256,198.436l-45.781-45.803
	c-4.165-4.164-10.917-4.164-15.083,0l-21.333,21.333c-4.164,4.165-4.164,10.917,0,15.083l74.667,74.667
	c4.165,4.164,10.917,4.164,15.083,0L444.885,82.383C449.05,78.218,449.05,71.466,444.885,67.3z"/>
<path style="fill:#2196F3;" d="M268.8,363.471l-3.84-6.187c-0.947-1.517-2.26-2.771-3.819-3.648L15.808,214.969
	c-5.161-2.84-11.648-0.957-14.487,4.204c-0.856,1.556-1.31,3.3-1.321,5.076v234.667c0,17.673,14.327,32,32,32h42.667
	c1.931,0.001,3.826-0.523,5.483-1.515l185.173-111.147c5.047-3.038,6.676-9.593,3.638-14.64c-0.025-0.041-0.05-0.082-0.075-0.123
	L268.8,363.471z"/>
<path style="fill:#64B5F6;" d="M506.603,214.97c-3.323-1.866-7.389-1.817-10.667,0.128l-426.667,256
	c-5.055,3.026-6.699,9.576-3.673,14.631c1.927,3.219,5.404,5.189,9.156,5.188h405.333c17.673,0,32-14.327,32-32V224.25
	C512.07,220.392,509.974,216.844,506.603,214.97z"/>
<g>
</g>
<g>
</g>
<g>
</g>
<g>
</g>
<g>
</g>
<g>
</g>
<g>
</g>
<g>
</g>
<g>
</g>
<g>
</g>
<g>
</g>
<g>
</g>
<g>
</g>
<g>
</g>
<g>
</g>
</svg>
