<?xml version="1.0" encoding="iso-8859-1"?>
<!-- Generator: Adobe Illustrator 19.0.0, SVG Export Plug-In . SVG Version: 6.00 Build 0)  -->
<svg version="1.1" id="Capa_1" xmlns="http://www.w3.org/2000/svg" xmlns:xlink="http://www.w3.org/1999/xlink" x="0px" y="0px"
	 viewBox="0 0 512 512" style="enable-background:new 0 0 512 512;" xml:space="preserve">
<circle style="fill:#B0E1FF;" cx="256" cy="255.999" r="255.999"/>
<path style="fill:#85C5ED;" d="M123.027,164.574c-33.373,60.946-20.675,135.636,28.348,182.339l1.122,79.036l85.406,85.406
	c5.98,0.417,12.012,0.645,18.098,0.645c133.85,0,243.689-102.73,255.017-233.643L362.875,130.213
	c-9.935-9.924-21.42-18.627-34.356-25.711C255.147,64.325,163.18,91.247,123.027,164.574z"/>
<path style="fill:#41A0D7;" d="M388.589,309.994c-33.58,61.323-103.586,90.369-168.897,74.329l-67.196,41.627l-1.122-79.036
	c-49.023-46.703-61.721-121.393-28.348-182.339c40.153-73.325,132.121-100.248,205.491-60.071
	C401.83,144.646,428.776,236.605,388.589,309.994z"/>
<polygon style="fill:#FFFFFF;" points="152.578,285.877 240.112,191.684 282.452,234.499 360.945,191.684 274.839,285.877 
	235.355,245.916 "/>
<g>
</g>
<g>
</g>
<g>
</g>
<g>
</g>
<g>
</g>
<g>
</g>
<g>
</g>
<g>
</g>
<g>
</g>
<g>
</g>
<g>
</g>
<g>
</g>
<g>
</g>
<g>
</g>
<g>
</g>
</svg>
