<svg id="Capa_1" enable-background="new 0 0 512 512" height="512" viewBox="0 0 512 512" width="512" xmlns="http://www.w3.org/2000/svg"><g><g><path d="m256 0c-75.514 0-143.383 32.703-190.24 84.71v11.43h-9.702c-35.071 43.807-56.058 99.379-56.058 159.86 0 141.385 114.615 256 256 256s256-114.615 256-256-114.615-256-256-256z" fill="#4fabf7"/></g><g><path d="m394.854 175.537c-3.903.001-7.196-3.021-7.474-6.976-.29-4.132 2.825-7.717 6.957-8.006 13.505-.947 24.205-11.868 24.892-25.404.26-5.129-.881-10.052-3.273-14.375l-5.046 5.047c-2.93 2.928-7.678 2.928-10.607 0-2.929-2.93-2.929-7.678 0-10.607l11.089-11.089c2.93-2.928 7.678-2.928 10.607 0 8.36 8.361 12.812 19.946 12.211 31.784-1.069 21.104-17.76 38.131-38.823 39.607-.178.013-.357.019-.533.019z" fill="#2a428c"/></g><g><path d="m457.736 422.629-328.415 87.998c-21.339 5.718-43.272-6.946-48.99-28.284l-54.351-202.845c-5.718-21.339 6.946-43.272 28.284-48.99l328.415-87.998c21.339-5.718 43.272 6.946 48.99 28.284l54.352 202.844c5.717 21.339-6.946 43.273-28.285 48.991z" fill="#e9efff"/></g><g><path d="m107.39 216.274-53.126 14.235c-21.339 5.718-34.002 27.651-28.284 48.99l54.352 202.844c5.718 21.339 27.651 34.002 48.99 28.284l328.415-87.998c21.339-5.718 34.002-27.651 28.284-48.99l-7.765-28.978-101.422 27.176c-117.363 31.447-237.997-38.201-269.444-155.563z" fill="#d3dcfb"/></g><g><g><g><path d="m382.264 334.147-231.822 62.117c-10.669 2.859-21.636-3.473-24.495-14.142-2.859-10.669 3.473-21.636 14.142-24.495l231.822-62.117c10.669-2.859 21.636 3.473 24.495 14.142 2.859 10.67-3.473 21.637-14.142 24.495z" fill="#2a428c"/></g><g><g><g><circle cx="217.71" cy="357.534" fill="#3c58a0" r="7.5"/></g></g><g><g><circle cx="246.688" cy="349.769" fill="#3c58a0" r="7.5"/></g></g><g><g><circle cx="275.665" cy="342.005" fill="#3c58a0" r="7.5"/></g></g><g><g><circle cx="304.643" cy="334.24" fill="#3c58a0" r="7.5"/></g></g><g><g><circle cx="333.621" cy="326.476" fill="#3c58a0" r="7.5"/></g></g><g><g><circle cx="362.599" cy="318.711" fill="#3c58a0" r="7.5"/></g></g><g><g><circle cx="188.732" cy="365.299" fill="#3c58a0" r="7.5"/></g></g><g><g><circle cx="159.754" cy="373.063" fill="#3c58a0" r="7.5"/></g></g></g></g><g><path d="m377.18 392.45-212.504 56.94c-10.669 2.859-21.636-3.473-24.495-14.142-2.859-10.669 3.473-21.636 14.142-24.495l212.504-56.94z" fill="#fff"/></g><g><path d="m377.18 392.45 19.319-5.176c10.669-2.859 17.001-13.826 14.142-24.495-2.859-10.669-13.826-17.001-24.495-14.142l-19.319 5.176c-10.669 2.859-17.001 13.826-14.142 24.495 2.859 10.669 13.826 17.001 24.495 14.142z" fill="#4fabf7"/></g><g><g><circle cx="236.836" cy="409.349" fill="#bec8f7" r="7.5"/></g><g><circle cx="265.814" cy="401.585" fill="#bec8f7" r="7.5"/></g><g><circle cx="294.792" cy="393.82" fill="#bec8f7" r="7.5"/></g><g><circle cx="323.769" cy="386.056" fill="#bec8f7" r="7.5"/></g><g><circle cx="207.858" cy="417.114" fill="#bec8f7" r="7.5"/></g><g><circle cx="178.88" cy="424.878" fill="#bec8f7" r="7.5"/></g></g><g><path d="m373.55 366.204 3.257 12.154c.414 1.543 2.381 2.003 3.435.802l7.478-8.517c.941-1.072.49-2.756-.861-3.214l-10.735-3.637c-1.514-.513-2.988.868-2.574 2.412z" fill="#fff"/></g></g><g><g><circle cx="218.471" cy="186.509" fill="#fff" r="115"/></g><g><g><g><path d="m307.68 231.684c10.746-21.203 14.02-46.289 7.383-71.056-14.294-53.347-69.128-85.005-122.474-70.711s-85.005 69.128-70.711 122.474c6.636 24.768 22.015 44.856 41.922 57.845z" fill="#9bd8f9"/></g><g><path d="m290.138 210.982c-10.265-5.105-47.811-1.391-47.811-1.391l-11.33-42.286-32.974 8.835 11.33 42.286s-34.373 15.557-40.71 25.11c-2.606 3.929-4.047 15.012-4.841 26.7 22.971 14.988 51.973 20.523 80.552 12.866s50.928-26.953 63.327-51.418c-6.532-9.725-13.322-18.603-17.543-20.702z" fill="#1e9ef4"/></g><g><path d="m280.289 259.318c-36.26 9.716-73.202-1.804-97.639-26.928-6.298 3.84-11.822 7.85-14.008 11.147-2.606 3.929-4.047 15.012-4.841 26.7 22.971 14.988 51.973 20.523 80.552 12.866 18.171-4.869 33.822-14.444 46.002-27.06-3.261 1.252-6.616 2.351-10.066 3.275z" fill="#1886ea"/></g><g><path d="m198.022 176.14 11.33 42.286c17.708-4.745 23.995-20.996 23.995-20.996l-2.352-30.125z" fill="#1886ea"/></g><g><path d="m240.759 147.061c6.049 22.575-.582 52.728-17.514 57.265s-37.751-18.261-43.8-40.836 3.327-42.484 20.258-47.021c16.932-4.537 35.007 8.017 41.056 30.592z" fill="#4fabf7"/></g><g><path d="m189.988 160.665c-5.407-20.178 1.511-38.225 15.132-45.07-1.808.105-3.618.392-5.416.874-16.931 4.537-26.307 24.446-20.258 47.021s26.868 45.373 43.8 40.836c1.798-.482 3.478-1.255 5.04-2.274-15.684-.855-32.891-21.208-38.298-41.387z" fill="#1e9ef4"/></g></g></g></g><g><path d="m392.338 175.626c-10.64 0-20.667-3.934-28.51-11.246-8.469-7.896-13.326-19.063-13.326-30.638 0-14.816 7.951-28.675 20.752-36.166 8.407-4.921 13.63-14.118 13.63-24.002 0-4.143 3.357-7.5 7.5-7.5s7.5 3.357 7.5 7.5c0 15.188-8.067 29.347-21.053 36.947-8.222 4.812-13.329 13.709-13.329 23.221 0 7.538 3.038 14.522 8.556 19.667 5.51 5.138 12.707 7.673 20.28 7.146 4.153-.299 7.716 2.826 8.006 6.957.29 4.132-2.825 7.717-6.957 8.006-1.022.072-2.038.108-3.049.108z" fill="#3c58a0"/></g><g><g><path d="m391.88 50.27c-3.14 2.69-7.87 2.33-10.57-.8-.05-.05-2.41-2.77-6.79-6.48-4.36-3.72-10.74-8.44-18.78-12.51-21.12-10.68-43.43-12.1-66.3-4.24-25.87 8.9-42.55 25.25-60.2 42.56-24.85 24.35-50.44 49.43-101.26 49.43-7.05 0-14.57-.48-22.65-1.52-17.14-2.19-33.64-9.08-49.29-20.57 3.13-3.91 6.37-7.73 9.72-11.44 12.55 9.04 26.36 15.2 41.47 17.13 59.16 7.56 83.42-16.21 111.51-43.75 18.07-17.71 36.75-36.02 65.82-46.02 10.16-3.49 19.76-5.2 28.69-5.63 20.71-1.02 37.81 4.79 49.84 10.96 16.88 8.67 27.2 19.62 29.25 21.9.2.22.32.36.36.41 2.69 3.14 2.32 7.88-.82 10.57z" fill="#1c2e7a"/></g></g><g><path d="m392.384 81.074c-12.406 0-22.5-10.094-22.5-22.5s10.094-22.5 22.5-22.5 22.5 10.094 22.5 22.5-10.094 22.5-22.5 22.5zm0-30c-4.136 0-7.5 3.364-7.5 7.5s3.364 7.5 7.5 7.5 7.5-3.364 7.5-7.5-3.364-7.5-7.5-7.5z" fill="#4b6bb2"/></g></g></svg>