<svg id="Layer_1" enable-background="new 0 0 512 512" height="512" viewBox="0 0 512 512" width="512" xmlns="http://www.w3.org/2000/svg"><g><g><path d="m358.23 481.5h-300.364c-8.284 0-15-6.716-15-15v-72.095c0-43.956 17.228-85.391 48.509-116.673s72.717-48.509 116.673-48.509c43.955 0 85.391 17.229 116.673 48.512s48.509 72.717 48.509 116.67v72.095c0 8.285-6.716 15-15 15z" fill="#7dd5f4"/></g><path d="m324.721 277.736c-31.282-31.284-72.717-48.512-116.672-48.512v252.276h150.181c8.284 0 15-6.716 15-15v-72.095c0-43.952-17.228-85.386-48.509-116.669z" fill="#4793ff"/><path clip-rule="evenodd" d="m208.048 184.994c18.198 0 33.087 14.889 33.087 33.086v69.834c0 18.197-14.889 33.086-33.087 33.086-18.198 0-33.086-14.889-33.086-33.086v-69.834c-.001-18.197 14.888-33.086 33.086-33.086z" fill="#fdd1a3" fill-rule="evenodd"/><path clip-rule="evenodd" d="m208.048 184.994v136.006c18.197 0 33.086-14.889 33.086-33.086v-69.834c0-18.197-14.888-33.085-33.086-33.086z" fill="#ffbb85" fill-rule="evenodd"/><path d="m208.047 336c-26.515 0-48.086-21.571-48.086-48.086v-69.834c0-26.515 21.571-48.086 48.086-48.086s48.087 21.571 48.087 48.086v69.834c0 26.515-21.571 48.086-48.087 48.086zm0-136.006c-9.973 0-18.086 8.113-18.086 18.086v69.834c0 9.973 8.113 18.086 18.086 18.086s18.087-8.113 18.087-18.086v-69.834c0-9.973-8.113-18.086-18.087-18.086z" fill="#4793ff"/><path d="m208.048 169.994v30c9.973 0 18.086 8.114 18.086 18.086v69.834c0 9.973-8.113 18.086-18.086 18.086v30c26.515 0 48.086-21.572 48.086-48.086v-69.834c0-26.514-21.571-48.085-48.086-48.086z" fill="#525cdd"/><g><path d="m208.048 275.173c-75.865 0-137.586-61.721-137.586-137.587 0-11.177 1.34-22.046 3.867-32.457 14.626-60.255 253.878-59.371 267.858 1.774 2.256 9.869 3.448 20.139 3.448 30.683 0 75.866-61.721 137.587-137.587 137.587z" fill="#ffe4c1"/></g><path d="m342.186 106.904c-7.007-30.646-70.599-46.152-134.138-46.413v214.682c75.865 0 137.586-61.721 137.586-137.587.001-10.543-1.191-20.813-3.448-30.682z" fill="#fdd1a3"/><path d="m208.048 0c-68.362 0-125.23 50.12-135.812 115.542h141.918c1.712 0 3.373-.586 4.707-1.661l21.839-17.602 11.798 16.181c1.412 1.937 3.664 3.082 6.06 3.082h85.303c-10.582-65.422-67.45-115.542-135.813-115.542z" fill="#fdbf00"/><g><path d="m364.134 512c-57.897 0-105-47.103-105-105s47.103-105 105-105 105 47.103 105 105-47.102 105-105 105z" fill="#00dd7b"/></g><path d="m364.134 302v210c57.897 0 105-47.103 105-105s-47.102-105-105-105z" fill="#00ab94"/><path d="m208.048 0v115.542h6.105c1.712 0 3.373-.586 4.707-1.661l21.84-17.602 11.798 16.181c1.412 1.937 3.664 3.082 6.06 3.082h85.303c-10.582-65.422-67.45-115.542-135.813-115.542z" fill="#ff8856"/><path d="m394.134 392h-15v-15c0-8.284-6.716-15-15-15s-15 6.716-15 15v15h-15c-8.284 0-15 6.716-15 15s6.716 15 15 15h15v15c0 8.284 6.716 15 15 15s15-6.716 15-15v-15h15c8.284 0 15-6.716 15-15s-6.716-15-15-15z" fill="#fff4f4"/><path d="m394.134 392h-15v-15c0-8.284-6.716-15-15-15v90c8.284 0 15-6.716 15-15v-15h15c8.284 0 15-6.716 15-15s-6.716-15-15-15z" fill="#f6efea"/></g></svg>