<svg height="478pt" viewBox="0 -24 478.42 478" width="478pt" xmlns="http://www.w3.org/2000/svg"><path d="m478.421875 44.601562v70.808594h-88.78125v-70.808594c-.042969-24.476562 19.765625-44.351562 44.238281-44.390624h.222656c24.449219 0 44.277344 19.800781 44.320313 44.25zm0 0" fill="#00acea"/><path d="m114.679688.210938h319.199218c-24.472656.039062-44.28125 19.914062-44.238281 44.390624v325.257813c-.039063 32.921875-26.738281 59.589844-59.660156 59.589844h-.179688c-1.378906 0-2.742187-.050781-4.101562-.148438-31.277344-2.1875-55.523438-28.214843-55.488281-59.570312v-38.570313h-199.921876v-.53125l2.109376-288.667968c0-23.25 19.03125-41.75 42.28125-41.75zm173.949218 141.148437v-57.058594l-62.910156-30.902343-62.898438 30.8125v57.148437c0 14.621094 9.46875 32.53125 21.558594 40.78125l41.339844 28.1875 41.339844-28.1875c12.089844-8.25 21.570312-26.160156 21.570312-40.78125zm0 0" fill="#00efd1"/><path d="m325.699219 429.300781-.007813.148438h-266.03125c-32.921875 0-59.6210935-26.667969-59.660156-59.589844v-38.699219h270.210938v38.570313c-.035157 31.355469 24.210937 57.382812 55.488281 59.570312zm0 0" fill="#00acea"/><path d="m288.628906 84.300781v57.058594c0 14.621094-9.480468 32.53125-21.570312 40.78125l-41.339844 28.1875-41.339844-28.1875c-12.089844-8.25-21.558594-26.160156-21.558594-40.78125v-57.148437l62.898438-30.8125zm0 0" fill="#00acea"/><path d="m217.859375 155.78125h-.019531c-2.128906-.007812-4.167969-.859375-5.664063-2.371094l-16.101562-16.261718c-2.042969-2.023438-2.84375-4.988282-2.09375-7.769532.75-2.777344 2.933593-4.9375 5.71875-5.660156 2.785156-.722656 5.742187.109375 7.746093 2.171875l10.445313 10.546875 26.144531-26.132812c3.125-3.125 8.191406-3.125 11.3125 0 3.125 3.125 3.125 8.1875 0 11.3125l-31.828125 31.820312c-1.503906 1.5-3.539062 2.34375-5.660156 2.34375zm0 0" fill="#fedb41"/><g fill="#00acea"><path d="m325.210938 255.828125h-192c-4.417969 0-8-3.578125-8-8 0-4.417969 3.582031-8 8-8h192c4.417968 0 8 3.582031 8 8 0 4.421875-3.582032 8-8 8zm0 0"/><path d="m325.210938 292.828125h-192c-4.417969 0-8-3.578125-8-8 0-4.417969 3.582031-8 8-8h192c4.417968 0 8 3.582031 8 8 0 4.421875-3.582032 8-8 8zm0 0"/></g></svg>